Coordinates
version=1
nRows=10
nColumns=33
inDegrees=yes

Units are S.I. units (second, meters, Newtons, ...)
Angles are in degrees.

endheader
time	ground_thorax_rot_x	ground_thorax_rot_y	ground_thorax_rot_z	ground_thorax_tx	ground_thorax_ty	ground_thorax_tz	clav_prot_r	clav_elev_r	scapula_abduction_r	scapula_elevation_r	scapula_upward_rot_r	scapula_winging_r	shoulder_elv_r	plane_of_elev_r	axial_rot_r	elbow_flexion_r	pro_sup_r	wrist_flex_r	wrist_dev_r	clav_prot_l	clav_elev_l	scapula_abduction_l	scapula_elevation_l	scapula_upward_rot_l	scapula_winging_l	shoulder_elv_l	plane_of_elev_l	axial_rot_l	elbow_flexion_l	pro_sup_l	wrist_flex_l	wrist_dev_l
      4.93000000	    -38.86011050	     -4.54737549	     11.19549479	   -229.25588205	    852.52963122	      4.76934555	      8.28478621	    -45.00000000	     39.68597815	    -45.00000000	    -45.00000000	  -1178.64052477	  -1181.87304497	    142.96759402	    179.99999979	   1092.34289489	     58.52743178	     25.07605803	      7.96127545	     15.14312538	     38.65026839	    -38.72693032	    -45.00000000	    -42.96612519	   -634.55879691	  -2806.39210673	     24.73719516	    -31.73873524	    370.51853294	     -2.35901228	      6.40800211	    -19.54923533
      4.94000000	    -38.80387614	     -4.15199318	     10.69509588	   -230.37937434	    852.85495201	      4.89940067	      8.26266984	    -45.00000000	     39.79070983	    -45.00000000	    -45.00000000	  -1178.69518349	  -1181.69680237	    142.89208526	    179.99999979	   1092.35417753	     58.64097851	     25.22858798	      7.99653149	     15.00669756	     38.69429868	    -38.59124790	    -45.00000000	    -41.97761993	   -634.78397656	  -2806.70915421	     24.39655046	    -32.06787168	    370.31540007	     -2.19626839	      6.25634517	    -19.51770318
      4.95000000	    -38.74832175	     -4.56064772	     11.19280455	   -231.47137697	    853.14992546	      5.02076880	      8.66124731	    -45.00000000	     39.92179778	    -45.00000000	    -45.00000000	  -1179.05057736	  -1182.02598670	    142.95594381	    179.99999979	   1092.14650097	     58.90503151	     25.43007867	      8.17081204	     15.52427905	     37.74179491	    -38.81794467	    -45.00000000	    -44.95753689	   -634.32622203	  -2806.42683413	     25.46375887	    -30.90824624	    370.29406467	     -2.19276350	      5.58271334	    -19.47471681
      4.96000000	    -38.84686819	     -4.45534879	     11.10440328	   -232.53764650	    853.41839688	      5.13308141	      8.38066322	    -45.00000000	     39.78618366	    -45.00000000	    -45.00000000	  -1178.91182935	  -1182.08503711	    143.18944217	    179.99999979	   1092.20883503	     58.99379367	     25.23948343	      7.94919800	     15.12336164	     38.33670724	    -38.62018048	    -45.00000000	    -44.05786888	   -634.46295517	  -2806.33599147	     24.92436533	    -31.66572555	    370.45093093	     -1.73405202	      6.07996176	    -19.56301772
      4.97000000	    -38.81289361	     -4.45395495	     11.08404986	   -233.57613886	    853.66195971	      5.23604067	      8.60289303	    -45.00000000	     39.87182174	    -45.00000000	    -45.00000000	  -1179.10104071	  -1182.14024073	    143.08393293	    179.99999979	   1092.02134572	     59.22190322	     25.43939345	      8.09217819	     15.36578569	     37.81268380	    -38.59124684	    -45.00000000	    -44.86951472	   -634.27289027	  -2806.41146127	     25.38642762	    -31.27779112	    370.35988167	     -1.43957869	      5.55485464	    -19.52232740
      4.98000000	    -38.90565014	     -4.34598181	     10.95063664	   -234.58874734	    853.88322083	      5.33119443	      8.45210179	    -45.00000000	     39.73575275	    -45.00000000	    -45.00000000	  -1179.01702082	  -1182.24339438	    143.28298506	    179.99999979	   1092.10601230	     59.34303766	     25.34933836	      7.91387940	     15.10087976	     38.23270749	    -38.39199214	    -45.00000000	    -44.18778656	   -634.45927563	  -2806.27380849	     24.94067463	    -31.67985830	    370.46816720	     -0.96304268	      5.80945072	    -19.58023207
      4.99000000	    -38.93319721	     -4.03862744	     10.62215767	   -235.57324426	    854.08323586	      5.42056798	      8.44574668	    -45.00000000	     39.77149842	    -45.00000000	    -45.00000000	  -1178.97217752	  -1182.21664733	    143.33343980	    179.99999979	   1092.07725807	     59.49502322	     25.44176130	      7.88908285	     14.97061771	     38.40388266	    -38.25122485	    -45.00000000	    -43.46866267	   -634.70513685	  -2806.33825136	     24.61256835	    -31.92179646	    370.47391357	     -0.56171703	      5.71802589	    -19.59123708
      5.00000000	    -38.85542602	     -4.25005887	     10.81253839	   -236.52931254	    854.26322366	      5.50699198	      8.67559096	    -45.00000000	     39.87838931	    -45.00000000	    -45.00000000	  -1179.23163146	  -1182.33444013	    143.30358466	    179.99999979	   1091.88995321	     59.78337867	     25.63462759	      8.02641161	     15.29956212	     37.74272833	    -38.35042322	    -45.00000000	    -45.00000000	   -634.38475687	  -2806.39749406	     25.30896203	    -31.27609279	    370.37998458	     -0.10915925	      5.16619869	    -19.54082921
      5.01000000	    -38.94212157	     -4.22709257	     10.74552623	   -237.45228302	    854.42192222	      5.59333667	      8.60692319	    -45.00000000	     39.88097703	    -45.00000000	    -45.00000000	  -1179.19542028	  -1182.47819654	    143.42360552	    179.99999979	   1091.83773486	     59.95853687	     25.62629053	      7.96765342	     15.16633552	     37.86635777	    -38.30840622	    -45.00000000	    -44.97442783	   -634.35313221	  -2806.31516665	     25.17325991	    -31.39730296	    370.47911049	      0.49727170	      5.21822859	    -19.59739477
      5.02000000	    -38.95623764	     -4.06108245	     10.56837904	   -238.33921190	    854.55761585	      5.68230807	      8.54383806	    -45.00000000	     39.77957408	    -45.00000000	    -45.00000000	  -1179.16322247	  -1182.49672524	    143.56599749	    179.99999979	   1091.90249793	     60.05230452	     25.62730453	      7.86460132	     15.01649333	     38.12156457	    -38.13419622	    -45.00000000	    -44.47275221	   -634.67181838	  -2806.27168075	     24.87302505	    -31.40804175	    370.52823539	      1.02600393	      5.31626598	    -19.62133286
